<?xml version="1.0" standalone="no"?>
<!DOCTYPE svg PUBLIC "-//W3C//DTD SVG 20010904//EN"
 "http://www.w3.org/TR/2001/REC-SVG-20010904/DTD/svg10.dtd">
<svg version="1.0" xmlns="http://www.w3.org/2000/svg"
 width="512.000000pt" height="512.000000pt" viewBox="0 0 512.000000 512.000000"
 preserveAspectRatio="xMidYMid meet">
<metadata>
Created by potrace 1.11, written by Peter Selinger 2001-2013
</metadata>
<g transform="translate(0.000000,512.000000) scale(0.100000,-0.100000)"
fill="#000000" stroke="none">
<path d="M4255 4902 c-23 -10 -59 -28 -80 -42 -22 -14 -112 -68 -200 -121
l-160 -96 -37 29 c-101 78 -233 96 -340 44 -70 -33 -141 -109 -162 -174 -39
-118 -21 -225 54 -322 l27 -35 -26 -43 c-243 -399 -251 -414 -247 -493 4 -75
31 -121 128 -217 98 -97 104 -102 141 -102 23 0 64 36 233 205 113 113 209
205 213 205 4 0 30 -24 59 -53 l53 -53 -16 -38 c-40 -95 -28 -155 61 -304 66
-110 87 -132 128 -132 27 0 75 45 389 358 197 196 360 367 363 380 13 48 -13
78 -120 141 -55 33 -119 67 -141 74 -49 18 -118 14 -170 -7 l-39 -17 -53 53
c-29 29 -53 56 -53 60 0 4 90 97 200 207 194 193 219 226 206 269 -9 28 -180
193 -223 216 -50 25 -136 29 -188 8z m171 -196 l53 -51 -209 -211 c-190 -190
-210 -213 -210 -244 0 -29 15 -48 123 -157 67 -69 134 -131 149 -139 32 -17
69 -6 108 31 39 37 70 37 134 1 l57 -32 -244 -245 c-135 -134 -256 -254 -269
-266 l-24 -23 -33 60 c-35 67 -35 88 4 130 37 39 47 76 31 108 -8 15 -70 82
-139 150 -109 107 -128 122 -157 122 -31 0 -54 -20 -240 -205 -113 -113 -210
-205 -215 -205 -13 0 -79 69 -94 98 -18 34 -8 55 150 319 160 268 160 269 88
339 -50 48 -68 81 -73 133 -8 84 58 159 146 166 53 4 88 -13 155 -76 37 -35
60 -49 80 -49 18 1 117 55 273 149 166 101 254 148 274 148 20 0 43 -15 82
-51z"/>
<path d="M2160 4474 c-234 -43 -405 -250 -396 -479 3 -77 26 -156 80 -277 15
-36 15 -38 -1 -39 -38 -1 -107 -8 -223 -24 -104 -14 -255 -60 -395 -120 -566
-244 -964 -767 -1049 -1380 -15 -112 -18 -338 -5 -430 5 -33 11 -80 15 -105 3
-25 8 -48 10 -51 2 -4 6 -24 10 -45 9 -59 77 -260 115 -339 48 -101 124 -228
187 -315 110 -150 378 -391 522 -469 328 -179 580 -243 930 -236 91 2 174 5
185 8 11 3 40 8 65 12 70 12 73 12 175 39 298 80 577 246 802 477 36 37 71 76
79 88 12 17 22 19 74 15 51 -3 62 -1 84 18 14 13 28 34 30 48 4 31 -19 80 -39
80 -21 0 -19 15 9 59 104 164 203 431 231 621 4 25 11 70 15 100 9 59 6 379
-4 420 -3 13 -8 42 -12 65 -3 22 -12 67 -20 101 -125 545 -507 1001 -1023
1223 -29 12 -51 25 -49 29 7 13 99 207 108 227 46 107 60 222 36 314 -55 215
-227 358 -441 366 -44 2 -91 1 -105 -1z m217 -186 c98 -48 170 -152 180 -261
6 -62 -17 -137 -83 -272 -67 -140 -221 -405 -234 -405 -11 0 -180 291 -231
395 -72 151 -88 203 -85 277 7 128 89 235 216 281 63 23 174 16 237 -15z
m-392 -836 c21 -37 76 -124 121 -193 70 -109 87 -128 114 -134 20 -4 41 -2 56
6 19 10 131 168 172 244 26 47 25 47 98 17 403 -167 739 -526 884 -945 56
-162 87 -336 86 -481 -1 -91 7 -86 -121 -87 -212 -2 -309 67 -505 361 -106
158 -176 216 -297 243 -62 15 -187 14 -268 -2 -27 -5 -91 -9 -142 -8 -115 2
-130 13 -198 130 -27 47 -63 100 -80 117 -29 31 -114 80 -165 95 -40 12 -91
55 -105 88 -21 51 -9 94 67 247 l73 144 0 106 c0 58 4 108 8 111 4 3 43 6 85
7 l78 2 39 -68z m-367 -38 c3 -68 2 -72 -56 -184 -74 -144 -95 -207 -95 -290
0 -78 24 -132 86 -193 36 -35 167 -107 195 -107 18 0 64 -57 100 -122 65 -118
115 -165 203 -191 62 -19 206 -21 299 -4 41 7 104 12 139 11 123 -5 172 -39
272 -189 226 -340 380 -439 666 -428 l82 3 -5 -27 c-2 -16 -6 -37 -9 -49 -3
-12 -7 -39 -11 -60 -10 -67 -81 -269 -125 -361 -24 -49 -66 -123 -93 -165 -45
-70 -53 -77 -79 -74 -19 2 -38 -5 -59 -22 -27 -23 -30 -30 -25 -69 4 -42 2
-46 -47 -96 -155 -157 -339 -280 -541 -360 -97 -39 -252 -83 -325 -93 -25 -3
-67 -10 -95 -14 -94 -15 -361 -4 -475 20 -387 79 -713 276 -948 573 -36 45
-49 68 -40 71 7 3 38 12 68 22 170 53 285 154 339 299 18 49 43 155 57 242 25
159 54 215 182 341 127 124 151 171 159 308 12 189 -74 325 -312 494 -134 95
-206 157 -248 214 -22 28 -55 66 -74 83 l-36 33 45 42 c214 203 480 347 763
411 35 8 40 2 43 -69z m-904 -561 c91 -105 177 -183 294 -267 139 -99 212
-168 244 -229 18 -34 22 -59 22 -127 0 -100 -12 -128 -80 -192 -177 -165 -212
-225 -250 -428 -54 -284 -94 -359 -224 -417 -50 -22 -157 -52 -186 -53 -14 0
-83 137 -118 235 -39 110 -59 188 -83 340 -15 89 -6 456 12 484 2 4 6 26 10
51 10 69 80 271 126 367 49 101 166 283 182 283 6 0 29 -21 51 -47z"/>
<path d="M2180 4149 c-104 -41 -131 -180 -52 -260 62 -61 153 -64 217 -8 131
115 -3 332 -165 268z"/>
<path d="M1940 2063 c-140 -29 -307 -138 -368 -241 -22 -39 -27 -59 -27 -117
0 -98 32 -157 160 -290 65 -68 113 -133 123 -167 6 -18 13 -78 16 -133 9 -156
30 -244 81 -331 98 -166 312 -200 555 -86 91 42 206 127 263 193 40 47 44 49
83 43 34 -5 46 -2 68 18 35 29 38 80 8 110 -20 21 -20 22 -3 57 118 234 93
485 -60 595 -23 16 -73 35 -121 47 -177 43 -169 39 -238 108 -82 83 -120 112
-195 149 -111 54 -225 69 -345 45z m223 -169 c74 -24 122 -57 202 -139 79 -80
135 -110 239 -131 140 -29 164 -42 192 -109 31 -75 15 -216 -37 -317 -19 -37
-20 -38 -47 -24 -36 18 -72 11 -99 -20 -30 -33 -29 -65 4 -105 l27 -32 -67
-63 c-139 -129 -351 -198 -450 -147 -40 20 -52 35 -81 98 -28 62 -34 90 -41
208 -14 220 -14 220 -228 463 -70 81 -83 107 -73 148 10 38 84 104 161 142
109 54 196 62 298 28z"/>
<path d="M2220 1540 c-37 -37 -36 -66 3 -123 20 -29 59 -78 87 -109 46 -52 56
-58 90 -58 45 0 80 35 80 79 0 25 -68 115 -152 203 -32 34 -79 37 -108 8z"/>
<path d="M4519 3288 c-19 -16 -39 -52 -39 -71 0 -23 138 -220 162 -233 53 -26
121 25 112 84 -4 22 -79 138 -126 195 -26 32 -84 45 -109 25z"/>
<path d="M4778 2805 c-38 -21 -44 -57 -25 -135 8 -36 21 -89 27 -118 15 -65
48 -96 94 -87 51 11 69 41 62 105 -8 83 -42 201 -63 221 -26 26 -64 31 -95 14z"/>
<path d="M4820 2250 c-11 -11 -20 -23 -21 -27 0 -5 -2 -19 -5 -33 -7 -40 -25
-163 -28 -186 -10 -78 101 -120 142 -54 20 32 46 191 43 256 -3 57 -89 86
-131 44z"/>
<path d="M4695 1741 c-26 -11 -35 -22 -72 -91 -16 -30 -42 -72 -56 -93 -68
-100 39 -194 118 -104 49 56 120 188 118 220 -2 51 -61 87 -108 68z"/>
<path d="M4360 1309 c-13 -6 -27 -14 -30 -18 -3 -4 -40 -33 -82 -65 -105 -77
-120 -109 -75 -162 17 -19 33 -27 55 -26 35 1 122 56 195 124 54 51 60 82 25
122 -28 30 -55 38 -88 25z"/>
<path d="M3889 1036 c-3 -3 -49 -17 -104 -31 -102 -26 -132 -44 -135 -80 -4
-40 0 -55 23 -75 28 -28 78 -24 204 15 83 25 94 31 108 61 15 31 15 37 0 68
-15 32 -38 46 -76 46 -9 0 -18 -2 -20 -4z"/>
</g>
</svg>
